<?xml version="1.0" standalone="no"?>
<!DOCTYPE svg PUBLIC "-//W3C//DTD SVG 20010904//EN"
 "http://www.w3.org/TR/2001/REC-SVG-20010904/DTD/svg10.dtd">
<svg version="1.0" xmlns="http://www.w3.org/2000/svg"
 width="260.000000pt" height="260.000000pt" viewBox="0 0 260.000000 260.000000"
 preserveAspectRatio="xMidYMid meet">
<metadata>
Created by potrace 1.11, written by Peter Selinger 2001-2013
</metadata>
<g transform="translate(0.000000,260.000000) scale(0.100000,-0.100000)"
fill="#000000" stroke="none">
<path d="M895 2190 c-5 -8 29 -20 59 -20 11 0 27 -6 35 -13 9 -8 32 -20 51
-27 19 -7 67 -39 105 -70 88 -71 92 -73 98 -56 6 16 -33 76 -50 76 -7 0 -16 6
-20 14 -16 26 -105 66 -189 85 -47 10 -87 15 -89 11z"/>
<path d="M1423 2153 c-52 -50 -73 -86 -73 -122 0 -39 -49 -77 -79 -61 -30 16
-31 14 -31 -50 0 -49 -7 -75 -35 -133 -19 -39 -35 -87 -35 -105 0 -29 5 -35
43 -52 24 -11 64 -20 94 -20 78 0 81 9 74 280 -3 138 1 155 55 236 20 30 34
57 31 60 -3 3 -23 -12 -44 -33z"/>
<path d="M1665 1750 c-16 -17 -16 -20 -3 -15 9 4 19 13 22 21 7 19 2 18 -19
-6z"/>
<path d="M1610 1677 c-19 -22 -45 -51 -57 -64 -13 -13 -23 -27 -23 -31 0 -13
-224 -264 -328 -368 -24 -24 -41 -47 -38 -53 4 -5 2 -12 -3 -15 -9 -6 -68 102
-63 117 1 4 -2 7 -8 7 -5 0 -10 -4 -10 -10 0 -5 -9 -10 -20 -10 -11 0 -23 -7
-26 -15 -4 -8 -15 -15 -25 -15 -12 0 -16 5 -13 15 4 8 1 15 -5 15 -6 0 -11 -7
-11 -15 0 -8 -4 -15 -10 -15 -5 0 -10 7 -10 16 0 13 -3 14 -14 5 -10 -8 -16
-9 -21 -1 -7 11 -66 7 -120 -8 -25 -7 -30 -13 -27 -35 2 -19 -2 -27 -13 -27
-9 0 -30 -7 -47 -16 -29 -15 -32 -15 -44 1 -10 13 -17 14 -33 6 -11 -6 -29
-11 -40 -11 -12 0 -21 -4 -21 -9 0 -6 -16 -7 -37 -4 l-37 6 16 -25 c17 -26 17
-26 -15 -38 -18 -6 -47 -18 -65 -26 -18 -8 -35 -14 -37 -14 -9 0 -5 46 4 56 5
5 12 19 16 31 5 18 3 22 -9 17 -9 -3 -19 -17 -22 -30 -3 -13 -12 -24 -20 -24
-7 0 -20 -10 -28 -22 -13 -18 -16 -19 -16 -5 0 22 -5 22 -43 -7 -18 -13 -41
-26 -52 -28 -23 -4 -33 -51 -15 -73 7 -9 9 -26 5 -46 -6 -27 -15 -146 -16
-218 -1 -14 6 -30 13 -35 8 -6 21 -29 28 -51 7 -22 21 -54 32 -72 18 -30 17
-79 -2 -93 -17 -13 -38 -72 -35 -102 1 -18 -3 -39 -8 -46 -8 -10 -7 -16 3 -22
12 -7 11 -10 -3 -16 -11 -4 -16 -13 -12 -22 3 -8 0 -19 -6 -23 -9 -5 -7 -16 8
-42 15 -25 18 -38 10 -46 -7 -7 -6 -16 6 -29 10 -11 15 -26 11 -36 -3 -9 -1
-16 5 -16 15 0 14 -27 -1 -33 -7 -3 445 -5 1004 -4 559 1 1020 5 1024 9 4 4 7
21 6 38 0 16 3 30 8 30 7 0 11 10 19 45 1 6 10 18 18 28 13 13 14 20 5 29 -17
17 -15 31 3 24 17 -6 21 9 5 19 -17 11 -11 25 8 18 14 -5 15 -4 6 8 -15 19
-24 59 -14 59 5 0 4 15 -1 32 -5 18 -9 45 -9 61 0 15 -4 35 -9 45 -5 9 -17 41
-26 71 -16 54 -16 54 9 80 13 14 42 55 63 91 37 64 38 67 37 165 0 76 -5 115
-22 164 -12 35 -22 83 -22 106 0 50 -17 69 -54 59 -24 -6 -26 -4 -26 27 0 41
-59 113 -84 103 -9 -3 -16 -2 -16 4 0 6 5 12 12 14 7 3 9 12 4 23 -5 15 -9 16
-15 6 -5 -7 -28 -13 -53 -13 -39 -1 -48 -5 -63 -30 -13 -23 -14 -32 -5 -43 10
-12 9 -15 -3 -15 -10 0 -13 -6 -10 -21 5 -18 2 -19 -23 -13 -16 4 -33 13 -37
21 -13 21 -37 15 -38 -9 -1 -17 -2 -19 -6 -5 -5 20 -24 22 -41 5 -18 -18 -15
-28 9 -28 11 0 17 -4 14 -10 -4 -6 -15 -8 -25 -5 -10 3 -21 2 -24 -4 -8 -12
-30 -9 -49 7 -10 9 -17 10 -22 2 -3 -6 -11 -8 -16 -5 -13 9 -11 -9 3 -23 10
-10 10 -15 -2 -23 -11 -8 -12 -12 -2 -16 22 -9 12 -20 -19 -20 -17 0 -34 -6
-39 -13 -5 -8 -17 -10 -34 -6 -27 7 -113 -14 -166 -40 -43 -22 -65 -15 -63 19
2 23 -1 27 -17 22 -25 -8 -35 13 -16 34 24 26 20 36 -16 37 -17 1 -36 8 -42
15 -6 8 -24 22 -39 32 -15 10 -33 29 -39 42 -10 22 -6 29 33 68 24 24 54 57
66 73 12 16 41 53 65 83 24 30 54 68 68 86 14 18 45 58 69 89 51 66 52 82 1
23z m-289 -489 c24 -18 50 -39 56 -48 11 -13 14 -13 22 0 6 8 13 11 18 7 4 -5
3 -11 -2 -15 -6 -4 -18 -23 -28 -42 -10 -19 -27 -53 -39 -75 -32 -61 -39 -80
-47 -116 l-7 -34 -32 63 c-18 34 -29 62 -25 62 5 0 1 6 -7 13 -18 14 -41 69
-47 115 -5 28 0 38 32 67 20 19 42 35 49 35 7 0 32 -15 57 -32z m-341 -78 c0
-5 -9 -10 -21 -10 -11 0 -17 5 -14 10 3 6 13 10 21 10 8 0 14 -4 14 -10z
m-685 -160 c-3 -5 -11 -10 -16 -10 -6 0 -7 5 -4 10 3 6 11 10 16 10 6 0 7 -4
4 -10z m1023 -247 c16 -36 16 -40 -9 -74 -22 -31 -46 -38 -55 -16 -5 13 36
117 46 117 3 0 11 -12 18 -27z m-78 -123 c0 -5 -5 -10 -11 -10 -5 0 -7 5 -4
10 3 6 8 10 11 10 2 0 4 -4 4 -10z m236 -31 c22 -18 17 -29 -14 -29 -30 0 -72
24 -72 42 0 13 66 4 86 -13z m-1219 -365 c-3 -3 -12 -4 -19 -1 -8 3 -5 6 6 6
11 1 17 -2 13 -5z m3 -74 c0 -5 -4 -10 -10 -10 -5 0 -10 5 -10 10 0 6 5 10 10
10 6 0 10 -4 10 -10z"/>
<path d="M940 1496 c0 -2 8 -10 18 -17 15 -13 16 -12 3 4 -13 16 -21 21 -21
13z"/>
<path d="M990 1450 c0 -6 11 -15 24 -20 13 -5 25 -13 27 -18 2 -5 33 -31 67
-58 90 -69 90 -69 99 -60 4 4 -5 17 -22 29 -16 12 -48 39 -71 60 -35 33 -104
77 -119 77 -3 0 -5 -5 -5 -10z"/>
<path d="M1519 1398 c-7 -24 -21 -50 -30 -59 -9 -9 -20 -31 -24 -48 -3 -17
-11 -33 -16 -36 -17 -11 -9 -44 13 -51 17 -5 28 0 50 27 15 18 28 41 28 50 0
10 6 19 13 22 7 2 12 22 13 48 1 24 4 55 9 69 6 21 5 23 -6 13 -16 -15 -33
-17 -24 -3 3 6 2 10 -3 10 -5 0 -15 -19 -23 -42z"/>
<path d="M1605 1430 c-4 -6 -10 -24 -15 -40 -9 -33 5 -52 15 -20 3 11 11 20
16 20 5 0 9 7 9 15 0 9 10 20 23 25 20 8 19 9 -10 9 -17 1 -35 -4 -38 -9z"/>
<path d="M880 1413 c0 -10 65 -33 91 -33 10 0 10 3 1 12 -6 6 -17 13 -24 15
-7 1 -25 5 -40 9 -16 4 -28 2 -28 -3z"/>
<path d="M1754 1390 c-27 -10 0 -22 31 -14 14 3 25 10 25 14 0 10 -29 9 -56 0z"/>
<path d="M610 1376 c0 -9 5 -16 10 -16 6 0 10 4 10 9 0 6 -4 13 -10 16 -5 3
-10 -1 -10 -9z"/>
<path d="M1665 1380 c-4 -6 -11 -8 -16 -5 -5 4 -9 -1 -9 -9 0 -23 37 -20 50 4
8 16 8 20 -4 20 -8 0 -18 -5 -21 -10z"/>
<path d="M2020 1369 c-13 -24 -4 -41 10 -19 10 16 13 40 5 40 -2 0 -9 -9 -15
-21z"/>
<path d="M838 1343 c-58 -5 -63 -24 -13 -47 48 -23 87 -13 83 22 -3 29 -5 30
-70 25z"/>
<path d="M995 1340 c-8 -13 5 -13 25 0 13 8 13 10 -2 10 -9 0 -20 -4 -23 -10z"/>
<path d="M1902 1323 c2 -12 12 -18 28 -18 36 0 33 29 -3 33 -23 3 -28 0 -25
-15z"/>
<path d="M670 1320 c0 -5 5 -10 10 -10 6 0 10 5 10 10 0 6 -4 10 -10 10 -5 0
-10 -4 -10 -10z"/>
<path d="M1855 1310 c-3 -5 3 -10 15 -10 12 0 18 5 15 10 -3 6 -10 10 -15 10
-5 0 -12 -4 -15 -10z"/>
<path d="M2011 1311 c-10 -7 -10 -10 -1 -16 6 -4 16 -3 22 3 13 13 -4 23 -21
13z"/>
<path d="M1010 1290 c13 -23 27 -33 34 -22 7 11 -6 27 -27 35 -15 6 -16 4 -7
-13z"/>
<path d="M533 1281 c-34 -17 -39 -38 -7 -33 21 4 54 30 54 44 0 11 -8 9 -47
-11z"/>
<path d="M733 1287 c-4 -7 -24 -21 -43 -31 -69 -35 -85 -46 -70 -47 36 -3 57
4 85 30 17 16 38 31 48 34 9 4 17 11 17 17 0 14 -28 12 -37 -3z"/>
<path d="M1815 1289 c-10 -15 1 -23 20 -15 9 3 13 10 10 16 -8 13 -22 13 -30
-1z"/>
<path d="M1905 1281 c-3 -5 -1 -12 5 -16 5 -3 10 1 10 9 0 18 -6 21 -15 7z"/>
<path d="M685 1189 c-10 -15 3 -25 16 -12 7 7 7 13 1 17 -6 3 -14 1 -17 -5z"/>
<path d="M1607 1133 c-8 -7 11 -33 24 -33 5 0 9 9 9 20 0 19 -20 27 -33 13z"/>
<path d="M485 1090 c3 -5 8 -10 11 -10 2 0 4 5 4 10 0 6 -5 10 -11 10 -5 0 -7
-4 -4 -10z"/>
</g>
</svg>
